<svg id="Layer_1" data-name="Layer 1" xmlns="http://www.w3.org/2000/svg" width="511.1807" height="311.4858" viewBox="0 0 511.1807 311.4858">
  <title>graph background</title>
  <g style="isolation: isolate">
    <path d="M239.5693,278.3418h.8v-6.0371l-1.6714.9082v-1.1367l2.2979-1.2852h.4355v7.5508h.8111v.9375h-2.6734Z" transform="translate(-0.5 -0.5)" style="fill: #231f20"/>
    <path d="M247.36,271.0254l-1.8511,3.0859a1.9562,1.9562,0,0,1,.6015-.1621c.18-.0156.34-.0215.482-.0215a2.5835,2.5835,0,0,1,.9692.1875,2.629,2.629,0,0,1,.83.5274,2.5987,2.5987,0,0,1,.58.81,2.45,2.45,0,0,1,.2177,1.0391,3.0688,3.0688,0,0,1-.2338,1.23,2.6953,2.6953,0,0,1-.6319.9082,2.7292,2.7292,0,0,1-.9228.5644,3.241,3.241,0,0,1-1.1133.1934,2.9769,2.9769,0,0,1-1.9819-.7657,2.7139,2.7139,0,0,1-.6343-.871,2.6545,2.6545,0,0,1-.2368-1.1309,2.5964,2.5964,0,0,1,.1826-.9473,9.2092,9.2092,0,0,1,.4546-.9785l2.0195-3.67Zm-1.1919,3.7949a1.659,1.659,0,0,0-.667.1211,2.0012,2.0012,0,0,0-.52.3438,1.5259,1.5259,0,0,0-.3867.5605,2.0422,2.0422,0,0,0-.1416.7871,1.9529,1.9529,0,0,0,.1416.7617,1.619,1.619,0,0,0,.3921.57,1.72,1.72,0,0,0,.5908.3536,2.1531,2.1531,0,0,0,.7378.1211,1.965,1.965,0,0,0,.7075-.129,1.8318,1.8318,0,0,0,.5938-.371,1.8027,1.8027,0,0,0,.4082-.5723,1.7334,1.7334,0,0,0,.1523-.7344,1.8022,1.8022,0,0,0-.163-.7871,1.67,1.67,0,0,0-.4385-.5684,1.8629,1.8629,0,0,0-.64-.3437A2.551,2.551,0,0,0,246.1685,274.82Z" transform="translate(-0.5 -0.5)" style="fill: #231f20"/>
    <path d="M253.97,273.1816a1.3091,1.3091,0,0,0-.09-.455,1.3514,1.3514,0,0,0-.2774-.4473,1.5318,1.5318,0,0,0-.4736-.3379,1.5948,1.5948,0,0,0-.6729-.1328,1.3217,1.3217,0,0,0-1.11.5293,1.1167,1.1167,0,0,0-.2832.6738h-1.0347a1.9936,1.9936,0,0,1,.2368-.8535,2.5311,2.5311,0,0,1,.5313-.67,2.5069,2.5069,0,0,1,1.6494-.627,2.7705,2.7705,0,0,1,1.0562.1934,2.5512,2.5512,0,0,1,.8085.5117,2.2908,2.2908,0,0,1,.5171.7266,2.0323,2.0323,0,0,1,.1827.834,2.1407,2.1407,0,0,1-.0655.5214,1.8287,1.8287,0,0,1-.2041.4981,1.9375,1.9375,0,0,1-.3564.4394,2.1883,2.1883,0,0,1-.5283.3536,1.8953,1.8953,0,0,1,.8764.6972,2.0422,2.0422,0,0,1,.2671.5547,2.2631,2.2631,0,0,1,.0977.6816,2.3672,2.3672,0,0,1-.2066.9883,2.4652,2.4652,0,0,1-.561.7852,2.5988,2.5988,0,0,1-.83.5215,2.7648,2.7648,0,0,1-1.021.1875,2.8929,2.8929,0,0,1-.9936-.1778,2.3124,2.3124,0,0,1-.8355-.5039,2.2315,2.2315,0,0,1-.5063-.68,2.163,2.163,0,0,1-.1963-.7031h1.0454a1.4835,1.4835,0,0,0,.5635.7949,1.73,1.73,0,0,0,1.0317.2891,1.4068,1.4068,0,0,0,.5527-.1152,1.4988,1.4988,0,0,0,.4761-.3184,1.5687,1.5687,0,0,0,.3325-.4785,1.4314,1.4314,0,0,0,.125-.6016,1.4969,1.4969,0,0,0-.125-.6211,1.4294,1.4294,0,0,0-.3379-.4707,1.516,1.516,0,0,0-.4926-.2988,1.6816,1.6816,0,0,0-.5962-.1074h-.4683v-.82h.3814a1.8516,1.8516,0,0,0,.645-.1075,1.4027,1.4027,0,0,0,.4819-.291,1.2732,1.2732,0,0,0,.3023-.4336A1.3256,1.3256,0,0,0,253.97,273.1816Z" transform="translate(-0.5 -0.5)" style="fill: #231f20"/>
    <path d="M256.2686,270.8066h1.9873v.9375h-.0118v4.2129h.9805l1.3389-1.3828h-.3369v-.9355h2.14v.9355h-.7139l-1.7148,1.77,1.873,1.998h.6807v.9375h-1.1924l-2.3086-2.5215h-.7461v1.584h.4688v.9375h-2.4121v-.9375h.9258v-6.5977h-.958Z" transform="translate(-0.5 -0.5)" style="fill: #231f20"/>
    <path d="M263.3135,273.6387H265.11v.6582h.0107A4.6754,4.6754,0,0,1,265.51,274a3.0871,3.0871,0,0,1,.4277-.2422,2.5334,2.5334,0,0,1,.4658-.1621,2.0339,2.0339,0,0,1,.503-.0605,2.255,2.255,0,0,1,1.0507.2265,1.5289,1.5289,0,0,1,.6807.7051q.2065-.1875.4355-.3574a3.1689,3.1689,0,0,1,.4766-.2969,2.8159,2.8159,0,0,1,.52-.2012,2.0842,2.0842,0,0,1,.5654-.0761,2.5071,2.5071,0,0,1,.8223.125,1.6127,1.6127,0,0,1,.6211.3808,1.6428,1.6428,0,0,1,.3887.6563,3.0045,3.0045,0,0,1,.1338.9453v2.6992h.7841v.9375H270.75v-.9375h.7949v-2.5742a1.3511,1.3511,0,0,0-.3261-.9824,1.2528,1.2528,0,0,0-.9424-.336,1.7961,1.7961,0,0,0-.7451.1738,2.2748,2.2748,0,0,0-.6534.4415v3.2773h.7784v.9375h-2.63v-.9375h.7949v-2.5742a1.3434,1.3434,0,0,0-.3291-.9824,1.2627,1.2627,0,0,0-.9453-.336,1.6579,1.6579,0,0,0-.7129.17,3.5666,3.5666,0,0,0-.6807.418v3.3047h.7949v.9375h-2.6347v-.9375h.7842v-3.7676h-.7842Z" transform="translate(-0.5 -0.5)" style="fill: #231f20"/>
  </g>
  <rect x="53.1456" y="41.4693" width="404.8895" height="208.2826" style="fill: #e6e7e8"/>
  <polygon points="229.891 279.28 52.646 279.28 52.646 264.783 53.646 264.783 53.646 278.28 229.891 278.28 229.891 279.28" style="fill: #231f20"/>
  <polygon points="458.535 279.28 281.29 279.28 281.29 278.28 457.535 278.28 457.535 264.783 458.535 264.783 458.535 279.28" style="fill: #231f20"/>
  <rect width="511.1807" height="311.4858" style="fill: none"/>
  <g style="opacity: 0.6000000000000001">
    <g>
      <path d="M175.2251,34.1172H173.312c-.0474.4394-.1826,1.2778-.2368,1.5547a1.2173,1.2173,0,0,1,1.021-.44,1.3,1.3,0,0,1,1.3179,1.4737,1.423,1.423,0,0,1-1.4395,1.6088,1.3326,1.3326,0,0,1-1.3926-1.1626h.3584a1.0279,1.0279,0,0,0,1.0542.8384c.7032,0,1.0547-.4936,1.0547-1.2641,0-.649-.2842-1.1626-.9736-1.1626a1.0287,1.0287,0,0,0-1.0747.6757l-.3379-.0947c.1421-.5947.2973-1.8315.3584-2.3589h2.251Z" transform="translate(-0.5 -0.5)" style="fill: #231f20"/>
      <path d="M179.0376,35.9761c0,1.021-.2637,2.3388-1.4536,2.3388-1.1558,0-1.4463-1.21-1.4463-2.3051,0-1.0879.3105-2.3047,1.4668-2.3047C178.7671,33.7051,179.0376,34.9219,179.0376,35.9761Zm-2.5215.04c0,.8652.1826,1.9741,1.0679,1.9741.9057,0,1.0815-1.0615,1.0815-2.0146,0-.8516-.1758-1.9468-1.0542-1.9468C176.6919,34.0293,176.5161,35.03,176.5161,36.0166Z" transform="translate(-0.5 -0.5)" style="fill: #231f20"/>
      <path d="M180.3018,36.5981c.311-.3315,1.2573-1.291,1.71-1.7441h.4326l-1.3384,1.3452,1.5074,2.0347h-.419l-1.332-1.8184-.561.541v1.2774h-.3379V33.252h.3379Z" transform="translate(-0.5 -0.5)" style="fill: #231f20"/>
      <path d="M183.1074,35.7261c0-.2906,0-.6084-.0068-.8721h.3315c.0069.1148.02.4058.0132.6016a1.0577,1.0577,0,0,1,1.0142-.6827.96.96,0,0,1,.98.6695,1.1506,1.1506,0,0,1,1.102-.6695c.52,0,1.061.2974,1.061,1.2369v2.2241h-.3379V36.05c0-.4526-.1621-.9463-.791-.9463-.6552,0-.9531.5273-.9531,1.1831v1.9468h-.331V36.0571c0-.4931-.1485-.9531-.7706-.9531-.6557,0-.9736.5815-.9736,1.271v1.8589h-.3379Z" transform="translate(-0.5 -0.5)" style="fill: #231f20"/>
    </g>
  </g>
  <g style="opacity: 0.6000000000000001">
    <g>
      <path d="M298.7656,38.2339v-4.022a3.0279,3.0279,0,0,1-1,.52v-.3178a3.69,3.69,0,0,0,1.0606-.6622h.291v4.4815Z" transform="translate(-0.5 -0.5)" style="fill: #231f20"/>
      <path d="M303.126,35.9761c0,1.021-.2637,2.3388-1.4541,2.3388-1.1553,0-1.4453-1.21-1.4453-2.3051,0-1.0879.31-2.3047,1.4668-2.3047C302.8555,33.7051,303.126,34.9219,303.126,35.9761Zm-2.5215.04c0,.8652.1826,1.9741,1.0674,1.9741.9062,0,1.082-1.0615,1.082-2.0146,0-.8516-.1758-1.9468-1.0547-1.9468C300.78,34.0293,300.6045,35.03,300.6045,36.0166Z" transform="translate(-0.5 -0.5)" style="fill: #231f20"/>
      <path d="M306.7637,35.9761c0,1.021-.2637,2.3388-1.4541,2.3388-1.1553,0-1.4463-1.21-1.4463-2.3051,0-1.0879.3105-2.3047,1.4668-2.3047C306.4922,33.7051,306.7637,34.9219,306.7637,35.9761Zm-2.5215.04c0,.8652.1816,1.9741,1.0674,1.9741.9052,0,1.081-1.0615,1.081-2.0146,0-.8516-.1758-1.9468-1.0537-1.9468C304.418,34.0293,304.2422,35.03,304.2422,36.0166Z" transform="translate(-0.5 -0.5)" style="fill: #231f20"/>
      <path d="M308.0273,36.5981c.3106-.3315,1.2579-1.291,1.711-1.7441h.4316l-1.3379,1.3452,1.5078,2.0347h-.42l-1.332-1.8184-.5606.541v1.2774H307.69V33.252h.3378Z" transform="translate(-0.5 -0.5)" style="fill: #231f20"/>
      <path d="M310.832,35.7261c0-.2906,0-.6084-.0058-.8721h.331c.0069.1148.0205.4058.0127.6016a1.0584,1.0584,0,0,1,1.0147-.6827.9582.9582,0,0,1,.98.6695,1.1524,1.1524,0,0,1,1.1025-.6695c.5205,0,1.0615.2974,1.0615,1.2369v2.2241H314.99V36.05c0-.4526-.1621-.9463-.791-.9463-.6562,0-.9531.5273-.9531,1.1831v1.9468h-.332V36.0571c0-.4931-.1485-.9531-.77-.9531-.6562,0-.9746.5815-.9746,1.271v1.8589h-.3379Z" transform="translate(-0.5 -0.5)" style="fill: #231f20"/>
    </g>
  </g>
  <g style="opacity: 0.6000000000000001">
    <g>
      <path d="M425.3379,38.2339v-4.022a3.0288,3.0288,0,0,1-1,.52v-.3178a3.691,3.691,0,0,0,1.06-.6622h.2911v4.4815Z" transform="translate(-0.5 -0.5)" style="fill: #231f20"/>
      <path d="M429.4277,34.1172h-1.9131c-.0478.4394-.1826,1.2778-.2373,1.5547a1.2192,1.2192,0,0,1,1.0215-.44,1.3,1.3,0,0,1,1.3184,1.4737,1.4232,1.4232,0,0,1-1.44,1.6088,1.3318,1.3318,0,0,1-1.3925-1.1626h.3574a1.0287,1.0287,0,0,0,1.0547.8384c.7031,0,1.0547-.4936,1.0547-1.2641,0-.649-.2842-1.1626-.9737-1.1626a1.03,1.03,0,0,0-1.0752.6757l-.3379-.0947c.1426-.5947.2979-1.8315.3594-2.3589h2.25Z" transform="translate(-0.5 -0.5)" style="fill: #231f20"/>
      <path d="M433.24,35.9761c0,1.021-.2636,2.3388-1.4531,2.3388-1.1562,0-1.4473-1.21-1.4473-2.3051,0-1.0879.3106-2.3047,1.4668-2.3047C432.97,33.7051,433.24,34.9219,433.24,35.9761Zm-2.5214.04c0,.8652.1826,1.9741,1.0683,1.9741.9053,0,1.0811-1.0615,1.0811-2.0146,0-.8516-.1758-1.9468-1.0547-1.9468C430.8945,34.0293,430.7188,35.03,430.7188,36.0166Z" transform="translate(-0.5 -0.5)" style="fill: #231f20"/>
      <path d="M434.5039,36.5981c.3115-.3315,1.2578-1.291,1.7109-1.7441h.4327l-1.3389,1.3452,1.5078,2.0347h-.4189l-1.3321-1.8184-.5615.541v1.2774h-.3379V33.252h.3379Z" transform="translate(-0.5 -0.5)" style="fill: #231f20"/>
      <path d="M437.3105,35.7261c0-.2906,0-.6084-.0078-.8721h.3321c.0068.1148.0195.4058.0136.6016a1.0571,1.0571,0,0,1,1.0137-.6827.9609.9609,0,0,1,.9805.6695,1.1488,1.1488,0,0,1,1.1015-.6695c.52,0,1.0606.2974,1.0606,1.2369v2.2241h-.3379V36.05c0-.4526-.1621-.9463-.791-.9463-.6543,0-.9531.5273-.9531,1.1831v1.9468h-.33V36.0571c0-.4931-.1494-.9531-.7715-.9531-.6553,0-.9727.5815-.9727,1.271v1.8589h-.3379Z" transform="translate(-0.5 -0.5)" style="fill: #231f20"/>
    </g>
  </g>
  <g style="opacity: 0.6000000000000001">
    <g>
      <path d="M189.16,86.1177h-1.9131c-.0474.4394-.1826,1.2778-.2368,1.5547a1.2173,1.2173,0,0,1,1.021-.4395,1.3,1.3,0,0,1,1.3178,1.4736,1.423,1.423,0,0,1-1.4394,1.6089,1.3326,1.3326,0,0,1-1.3926-1.1626h.3584a1.0279,1.0279,0,0,0,1.0542.8384c.7031,0,1.0547-.4936,1.0547-1.2641,0-.649-.2842-1.1626-.9736-1.1626a1.0289,1.0289,0,0,0-1.0748.6757l-.3378-.0947c.142-.5947.2973-1.8315.3584-2.3589h2.2509Z" transform="translate(-0.5 -0.5)" style="fill: #231f20"/>
      <path d="M189.9307,90.2344v-.02a2.8969,2.8969,0,0,1,1.3584-1.9331c.77-.6016.9668-.7842.9668-1.3453a.8386.8386,0,0,0-.9126-.9057c-.6084,0-.9263.2905-1.0411.9394h-.3447a1.313,1.313,0,0,1,1.3858-1.2636,1.1781,1.1781,0,0,1,1.2841,1.21c0,.69-.29.919-1.1152,1.5952a3.3526,3.3526,0,0,0-1.1894,1.3926H192.81l-.0611.3311Z" transform="translate(-0.5 -0.5)" style="fill: #231f20"/>
      <path d="M193.9258,88.5986c.311-.3315,1.2573-1.291,1.71-1.7441h.4326L194.7305,88.2l1.5073,2.0347h-.419l-1.332-1.8184-.561.541v1.2774h-.3379v-4.982h.3379Z" transform="translate(-0.5 -0.5)" style="fill: #231f20"/>
      <path d="M196.7314,87.7266c0-.2906,0-.6084-.0068-.8721h.3316c.0068.1147.02.4058.0131.6016a1.0578,1.0578,0,0,1,1.0142-.6827.96.96,0,0,1,.98.6695,1.1506,1.1506,0,0,1,1.102-.6695c.52,0,1.0611.2974,1.0611,1.2369v2.2241h-.3379V88.0508c0-.4527-.1621-.9463-.791-.9463-.6553,0-.9532.5273-.9532,1.1831v1.9468h-.331V88.0576c0-.4931-.1485-.9531-.77-.9531-.6558,0-.9737.5815-.9737,1.271v1.8589h-.3379Z" transform="translate(-0.5 -0.5)" style="fill: #231f20"/>
    </g>
  </g>
  <g style="opacity: 0.6000000000000001">
    <g>
      <path d="M196.2544,109.2437h-1.9131c-.0474.4394-.1826,1.2778-.2368,1.5546a1.2175,1.2175,0,0,1,1.021-.4394,1.3,1.3,0,0,1,1.3179,1.4736,1.423,1.423,0,0,1-1.44,1.6089,1.3326,1.3326,0,0,1-1.3926-1.1626h.3584a1.0279,1.0279,0,0,0,1.0542.8384c.7032,0,1.0547-.4937,1.0547-1.2642,0-.6489-.2842-1.1626-.9736-1.1626a1.0288,1.0288,0,0,0-1.0747.6758l-.3379-.0947c.1421-.5947.2973-1.8316.3584-2.3589h2.251Z" transform="translate(-0.5 -0.5)" style="fill: #231f20"/>
      <path d="M199.8779,109.2437h-1.9131c-.0473.4394-.1826,1.2778-.2368,1.5546a1.2177,1.2177,0,0,1,1.021-.4394,1.3,1.3,0,0,1,1.3179,1.4736,1.423,1.423,0,0,1-1.44,1.6089,1.3325,1.3325,0,0,1-1.3925-1.1626h.3579a1.0287,1.0287,0,0,0,1.0547.8384c.7031,0,1.0546-.4937,1.0546-1.2642,0-.6489-.2841-1.1626-.9736-1.1626a1.0288,1.0288,0,0,0-1.0747.6758l-.3379-.0947c.1421-.5947.2974-1.8316.3584-2.3589h2.251Z" transform="translate(-0.5 -0.5)" style="fill: #231f20"/>
      <path d="M201.2974,111.7246c.311-.3315,1.2573-1.291,1.71-1.7441h.4326l-1.3383,1.3452,1.5073,2.0347h-.419l-1.332-1.8184-.561.541V113.36H200.96v-4.982h.3379Z" transform="translate(-0.5 -0.5)" style="fill: #231f20"/>
      <path d="M204.1025,110.8525c0-.2905,0-.6084-.0068-.872h.3315c.0069.1147.02.4057.0132.6015a1.0577,1.0577,0,0,1,1.0142-.6826.96.96,0,0,1,.98.6694,1.1506,1.1506,0,0,1,1.102-.6694c.52,0,1.0611.2974,1.0611,1.2368V113.36H208.26v-2.1836c0-.4527-.1621-.9463-.791-.9463-.6553,0-.9532.5273-.9532,1.1831V113.36h-.331v-2.1768c0-.4932-.1485-.9531-.77-.9531-.6558,0-.9737.5815-.9737,1.271V113.36h-.3379Z" transform="translate(-0.5 -0.5)" style="fill: #231f20"/>
    </g>
  </g>
  <g style="opacity: 0.6000000000000001">
    <g>
      <path d="M229.1255,132.9307a.8239.8239,0,0,0-.8721-.6558c-.8515,0-1.1557.7979-1.1758,1.9673a1.2506,1.2506,0,0,1,1.21-.7573,1.3216,1.3216,0,0,1,1.3452,1.4873,1.4335,1.4335,0,0,1-1.4131,1.5952c-1.1826,0-1.4936-.9937-1.4936-2.2442,0-1.271.3921-2.3657,1.541-2.3657a1.1323,1.1323,0,0,1,1.2168.9732Zm.1352,2.062c0-.5479-.2163-1.1831-1-1.1831a1.079,1.079,0,0,0-1.1084,1.1963c0,.372.1958,1.2436,1.0747,1.2436C228.9839,136.25,229.2607,135.6211,229.2607,134.9927Z" transform="translate(-0.5 -0.5)" style="fill: #231f20"/>
      <path d="M230.3086,135.2427a1.2273,1.2273,0,0,1,.8584-1.19,1,1,0,0,1-.6621-.9531,1.1406,1.1406,0,0,1,1.2978-1.1421,1.1256,1.1256,0,0,1,1.2369,1.1353.97.97,0,0,1-.6558.9468,1.1988,1.1988,0,0,1,.8384,1.1894,1.4627,1.4627,0,0,1-2.9136.0137Zm2.5483-.0137a.9523.9523,0,0,0-1.0879-1.0073.9636.9636,0,0,0-1.0952,1.0073.9946.9946,0,0,0,1.0884,1.02A.9824.9824,0,0,0,232.8569,135.229ZM230.87,133.08c0,.4258.2569.8179.9263.8179.6221,0,.8789-.3247.8789-.7911a.8042.8042,0,0,0-.8926-.8315C231.1133,132.2749,230.87,132.6265,230.87,133.08Z" transform="translate(-0.5 -0.5)" style="fill: #231f20"/>
      <path d="M234.4458,134.8506c.311-.3316,1.2573-1.291,1.71-1.7442h.4326l-1.3384,1.3453,1.5073,2.0346h-.4189l-1.3321-1.8183-.561.541v1.2773h-.3379v-4.9819h.3379Z" transform="translate(-0.5 -0.5)" style="fill: #231f20"/>
      <path d="M237.2515,133.9785c0-.2905,0-.6084-.0069-.8721h.3316c.0068.1148.02.4058.0132.6016a1.0575,1.0575,0,0,1,1.0141-.6826.9594.9594,0,0,1,.98.6694,1.1506,1.1506,0,0,1,1.102-.6694c.5206,0,1.0611.2974,1.0611,1.2368v2.2241h-.3379v-2.1836c0-.4526-.1621-.9463-.791-.9463-.6553,0-.9531.5274-.9531,1.1832v1.9467h-.3311V134.31c0-.4932-.1489-.9532-.77-.9532-.6558,0-.9736.5816-.9736,1.271v1.8589h-.3379Z" transform="translate(-0.5 -0.5)" style="fill: #231f20"/>
    </g>
  </g>
  <g style="opacity: 0.6000000000000001">
    <g>
      <path d="M178.0762,159.6123v-1.2432h-2.1431v-.332l2.1362-2.8725h.3516v2.8793h.6016l-.0474.3252h-.5542v1.2432Zm0-2.9136c0-.25.0063-.8042.0132-1.1015-.1827.3242-1.2437,1.7378-1.7574,2.4467h1.7442Z" transform="translate(-0.5 -0.5)" style="fill: #231f20"/>
      <path d="M182.24,155.1646v.331a11.2293,11.2293,0,0,0-1.8252,4.1167h-.3584a11.5288,11.5288,0,0,1,1.8047-4.1167h-2.4331v-.331Z" transform="translate(-0.5 -0.5)" style="fill: #231f20"/>
      <path d="M183.3081,157.9766c.311-.3311,1.2573-1.2911,1.71-1.7442h.4326l-1.3384,1.3457,1.5073,2.0342h-.4189l-1.3321-1.8184-.561.5411v1.2773H182.97V154.63h.3379Z" transform="translate(-0.5 -0.5)" style="fill: #231f20"/>
      <path d="M186.1138,157.1045c0-.2905,0-.6084-.0069-.8721h.3316c.0068.1148.02.4058.0132.6016a1.0576,1.0576,0,0,1,1.0141-.6826.9594.9594,0,0,1,.98.6694,1.1505,1.1505,0,0,1,1.1021-.6694c.52,0,1.061.2973,1.061,1.2373v2.2236h-.3379v-2.1836c0-.4526-.1621-.9463-.791-.9463-.6553,0-.9531.5274-.9531,1.1836v1.9463h-.3311v-2.1768c0-.4931-.1489-.9531-.77-.9531-.6558,0-.9736.5821-.9736,1.2715v1.8584h-.3379Z" transform="translate(-0.5 -0.5)" style="fill: #231f20"/>
    </g>
  </g>
  <g style="opacity: 0.6000000000000001">
    <g>
      <path d="M136.2329,179.291a1.2143,1.2143,0,0,1,1.3047-1.081,1.1157,1.1157,0,0,1,1.2437,1.1152.9281.9281,0,0,1-.6221.9326v.0137a1.1117,1.1117,0,0,1,.8247,1.1553,1.3339,1.3339,0,0,1-1.46,1.3925,1.3523,1.3523,0,0,1-1.44-1.1826h.3515a1.083,1.083,0,0,0,1.1153.8584.9788.9788,0,0,0,1.0615-1.0547c0-.71-.4663-.9931-1.1221-.9931h-.2636v-.3116h.2094c.6758,0,.98-.2832.98-.8105a.7865.7865,0,0,0-.8921-.791.8814.8814,0,0,0-.9531.7568Z" transform="translate(-0.5 -0.5)" style="fill: #231f20"/>
      <path d="M140.6,182.7383v-4.0215a3.047,3.047,0,0,1-1,.52v-.3184a3.6684,3.6684,0,0,0,1.0615-.6621h.2906v4.4815Z" transform="translate(-0.5 -0.5)" style="fill: #231f20"/>
      <path d="M142.54,181.1025c.3111-.331,1.2574-1.291,1.71-1.7441h.4326l-1.3384,1.3457,1.5074,2.0342h-.419l-1.332-1.8184-.5611.541v1.2774h-.3379v-4.9815h.3379Z" transform="translate(-0.5 -0.5)" style="fill: #231f20"/>
      <path d="M145.3457,180.2305c0-.29,0-.6084-.0068-.8721h.3315c.0068.1152.02.4062.0132.6016a1.0577,1.0577,0,0,1,1.0142-.6827.96.96,0,0,1,.98.67,1.1511,1.1511,0,0,1,1.1021-.67c.52,0,1.061.2979,1.061,1.2373v2.2237h-.3379v-2.1836c0-.4522-.1621-.9463-.791-.9463-.6553,0-.9531.5273-.9531,1.1836v1.9463h-.3311v-2.1768c0-.4931-.1484-.9531-.77-.9531-.6557,0-.9736.582-.9736,1.2715v1.8584h-.3379Z" transform="translate(-0.5 -0.5)" style="fill: #231f20"/>
    </g>
  </g>
  <g style="opacity: 0.6000000000000001">
    <g>
      <path d="M199.7837,201.749h-1.9131c-.0474.44-.1826,1.2774-.2368,1.5547a1.2175,1.2175,0,0,1,1.021-.4394,1.3,1.3,0,0,1,1.3179,1.4736,1.4226,1.4226,0,0,1-1.44,1.6084,1.3325,1.3325,0,0,1-1.3926-1.1621h.3584a1.0281,1.0281,0,0,0,1.0542.8379c.7031,0,1.0547-.4932,1.0547-1.2637,0-.6494-.2842-1.1631-.9736-1.1631a1.0287,1.0287,0,0,0-1.0747.6758l-.3379-.0947c.1421-.5948.2973-1.8311.3584-2.3584h2.251Z" transform="translate(-0.5 -0.5)" style="fill: #231f20"/>
      <path d="M203.1294,202.31a.824.824,0,0,0-.8721-.6553c-.8515,0-1.1557.7978-1.1758,1.9668a1.25,1.25,0,0,1,1.21-.7568,1.3216,1.3216,0,0,1,1.3452,1.4873,1.4334,1.4334,0,0,1-1.4131,1.5947c-1.1826,0-1.4936-.9932-1.4936-2.2442,0-1.27.3921-2.3652,1.541-2.3652a1.1323,1.1323,0,0,1,1.2168.9727Zm.1352,2.0625c0-.5479-.2163-1.1836-1-1.1836a1.079,1.079,0,0,0-1.1084,1.1963c0,.372.1958,1.2441,1.0747,1.2441C202.9878,205.6289,203.2646,205,203.2646,204.3721Z" transform="translate(-0.5 -0.5)" style="fill: #231f20"/>
      <path d="M204.8467,204.23c.311-.3311,1.2573-1.291,1.71-1.7441h.4326l-1.3383,1.3457,1.5073,2.0341h-.419l-1.332-1.8183-.561.541v1.2773h-.3379v-4.9814h.3379Z" transform="translate(-0.5 -0.5)" style="fill: #231f20"/>
      <path d="M207.6523,203.3574c0-.29,0-.6084-.0068-.872h.3316c.0068.1152.02.4062.0131.6015a1.0577,1.0577,0,0,1,1.0142-.6826.96.96,0,0,1,.98.67,1.151,1.151,0,0,1,1.102-.67c.52,0,1.0611.2978,1.0611,1.2373v2.2236H211.81v-2.1836c0-.4521-.1621-.9462-.791-.9462-.6553,0-.9532.5273-.9532,1.1835v1.9463h-.331v-2.1767c0-.4932-.1485-.9531-.77-.9531-.6558,0-.9737.582-.9737,1.2714v1.8584h-.3379Z" transform="translate(-0.5 -0.5)" style="fill: #231f20"/>
    </g>
  </g>
  <g style="opacity: 0.6000000000000001">
    <g>
      <path d="M102.022,228.9912v-4.0224a3.0113,3.0113,0,0,1-1.0005.52v-.3174a3.7183,3.7183,0,0,0,1.0615-.6621h.2905v4.4814Z" transform="translate(-0.5 -0.5)" style="fill: #231f20"/>
      <path d="M106.1592,224.543v.331a11.2262,11.2262,0,0,0-1.8252,4.1172h-.3584a11.52,11.52,0,0,1,1.8047-4.1172h-2.4331v-.331Z" transform="translate(-0.5 -0.5)" style="fill: #231f20"/>
      <path d="M107.2271,227.3555c.311-.3321,1.2573-1.291,1.71-1.7442h.4326l-1.3384,1.3448,1.5074,2.0351h-.419l-1.332-1.8183-.561.541v1.2773h-.3379v-4.9824h.3379Z" transform="translate(-0.5 -0.5)" style="fill: #231f20"/>
      <path d="M110.0327,226.4834c0-.291,0-.6084-.0068-.8721h.3315c.0069.1143.02.4053.0132.6016a1.0576,1.0576,0,0,1,1.0142-.6826.9589.9589,0,0,1,.98.6689,1.1506,1.1506,0,0,1,1.1021-.6689c.52,0,1.061.2968,1.061,1.2363v2.2246H114.19v-2.1836c0-.4531-.1621-.9463-.791-.9463-.6552,0-.9531.5274-.9531,1.1826v1.9473h-.3311v-2.1767c0-.4932-.1484-.9532-.77-.9532-.6557,0-.9736.5811-.9736,1.27v1.8594h-.3379Z" transform="translate(-0.5 -0.5)" style="fill: #231f20"/>
    </g>
  </g>
  <rect x="78.2007" y="41.4692" width="0.5" height="208.2827" style="fill: #231f20;opacity: 0.24"/>
  <rect x="103.5054" y="41.4692" width="0.5" height="208.2827" style="fill: #231f20;opacity: 0.24"/>
  <rect x="128.8105" y="41.4692" width="0.5" height="208.2827" style="fill: #231f20;opacity: 0.24"/>
  <rect x="154.1157" y="41.4692" width="0.5" height="208.2827" style="fill: #231f20;opacity: 0.24"/>
  <rect x="179.4204" y="41.4692" width="0.5" height="208.2827" style="fill: #231f20;opacity: 0.24"/>
  <rect x="204.7256" y="41.4692" width="0.5" height="208.2827" style="fill: #231f20;opacity: 0.24"/>
  <rect x="230.0308" y="41.4692" width="0.5" height="208.2827" style="fill: #231f20;opacity: 0.24"/>
  <rect x="255.3359" y="41.4692" width="0.5" height="208.2827" style="fill: #231f20;opacity: 0.24"/>
  <rect x="280.6406" y="41.4692" width="0.5" height="208.2827" style="fill: #231f20;opacity: 0.24"/>
  <rect x="305.9453" y="41.4692" width="0.5" height="208.2827" style="fill: #231f20;opacity: 0.24"/>
  <rect x="331.251" y="41.4692" width="0.5" height="208.2827" style="fill: #231f20;opacity: 0.24"/>
  <rect x="356.5557" y="41.4692" width="0.5" height="208.2827" style="fill: #231f20;opacity: 0.24"/>
  <rect x="381.8604" y="41.4692" width="0.5" height="208.2827" style="fill: #231f20;opacity: 0.24"/>
  <rect x="407.166" y="41.4692" width="0.5" height="208.2827" style="fill: #231f20;opacity: 0.24"/>
  <rect x="432.4707" y="41.4692" width="0.5" height="208.2827" style="fill: #231f20;opacity: 0.24"/>
  <g>
    <path d="M30.41,67.7207h.9775V64.44h-.78v-.3481a2.7869,2.7869,0,0,0,.9116-.3115h.4195v3.94h.8818v.4556H30.41Z" transform="translate(-0.5 -0.5)" style="fill: #0052a4"/>
    <path d="M39.75,67.5884V67.99H34.8745v-.4018h2.189V66.833c-.9478-.0542-1.5235-.42-1.5235-1.0195,0-.6475.6778-1.02,1.7691-1.02,1.0732,0,1.751.3721,1.751,1.02,0,.6-.57.9594-1.5049,1.0195v.7554Zm-.27-3.16H35.1143v-.4018h1.9492v-.7017h.4917v.7017H39.48Zm-2.1709,2.0269c.7734,0,1.2534-.24,1.2534-.6416,0-.3955-.48-.6358-1.2534-.6358-.7857,0-1.2715.24-1.2715.6358C36.0376,66.2153,36.5234,66.4551,37.3091,66.4551Z" transform="translate(-0.5 -0.5)" style="fill: #0052a4"/>
    <path d="M43.2788,66.3711a2.26,2.26,0,0,1-1.2832-1.2773,2.3418,2.3418,0,0,1-1.3374,1.4033l-.2578-.39a2.0286,2.0286,0,0,0,1.3433-1.8769v-.6656h.4917v.6836a1.93,1.93,0,0,0,1.3012,1.7452Zm1.6733,1.727V68.5H41.3657V66.8208h.4922v1.2773Zm-.624-3.184H43.1528v-.4078h1.1753V63.2471h.4981v4.0175h-.4981Z" transform="translate(-0.5 -0.5)" style="fill: #0052a4"/>
  </g>
  <g>
    <path d="M30.146,90.8262c1.3794-1.2056,2.0151-2.0811,2.0151-2.8365a.7726.7726,0,0,0-.8095-.87,1.23,1.23,0,0,0-.9117.51l-.3178-.312a1.6817,1.6817,0,0,1,1.2954-.6475,1.2058,1.2058,0,0,1,1.2773,1.3013c0,.8755-.6894,1.769-1.7212,2.7466.2281-.0181.4981-.042.72-.042h1.2172V91.15H30.146Z" transform="translate(-0.5 -0.5)" style="fill: #009d3e"/>
    <path d="M39.75,90.562v.4019H34.8745V90.562h2.189v-.7554c-.9478-.0542-1.5235-.42-1.5235-1.02,0-.6475.6778-1.0195,1.7691-1.0195,1.0732,0,1.751.372,1.751,1.0195,0,.6-.57.96-1.5049,1.02v.7554Zm-.27-3.16H35.1143V87h1.9492v-.7017h.4917V87H39.48Zm-2.1709,2.0268c.7734,0,1.2534-.24,1.2534-.6416,0-.3955-.48-.6357-1.2534-.6357-.7857,0-1.2715.24-1.2715.6357C36.0376,89.189,36.5234,89.4287,37.3091,89.4287Z" transform="translate(-0.5 -0.5)" style="fill: #009d3e"/>
    <path d="M43.2788,89.3447a2.26,2.26,0,0,1-1.2832-1.2773,2.3413,2.3413,0,0,1-1.3374,1.4033l-.2578-.39a2.0288,2.0288,0,0,0,1.3433-1.877v-.6655h.4917v.6836a1.93,1.93,0,0,0,1.3012,1.7451Zm1.6733,1.7271v.4018H41.3657V89.7944h.4922v1.2774Zm-.624-3.1841H43.1528V87.48h1.1753V86.2207h.4981v4.0176h-.4981Z" transform="translate(-0.5 -0.5)" style="fill: #009d3e"/>
  </g>
  <g>
    <path d="M30.0562,113.6021l.2758-.36a1.4543,1.4543,0,0,0,1.0913.5034.8091.8091,0,0,0,.8936-.8154c0-.5279-.3535-.8814-1.3672-.8814v-.42c.9058,0,1.2173-.3657,1.2173-.8393a.6872.6872,0,0,0-.7437-.7081,1.3714,1.3714,0,0,0-.9111.438l-.2939-.3476a1.7571,1.7571,0,0,1,1.229-.5279c.7378,0,1.2773.3956,1.2773,1.1036a1.0952,1.0952,0,0,1-.7856,1.061v.0244a1.13,1.13,0,0,1,.9355,1.1152,1.28,1.28,0,0,1-1.4092,1.2535A1.8211,1.8211,0,0,1,30.0562,113.6021Z" transform="translate(-0.5 -0.5)" style="fill: #ef7c1c"/>
    <path d="M39.75,113.5356v.4019H34.8745v-.4019h2.189V112.78c-.9478-.0542-1.5235-.42-1.5235-1.02,0-.6474.6778-1.0195,1.7691-1.0195,1.0732,0,1.751.3721,1.751,1.0195,0,.6-.57.96-1.5049,1.02v.7553Zm-.27-3.16H35.1143v-.4019h1.9492v-.7016h.4917v.7016H39.48Zm-2.1709,2.0268c.7734,0,1.2534-.24,1.2534-.6416,0-.3955-.48-.6357-1.2534-.6357-.7857,0-1.2715.24-1.2715.6357C36.0376,112.1626,36.5234,112.4023,37.3091,112.4023Z" transform="translate(-0.5 -0.5)" style="fill: #ef7c1c"/>
    <path d="M43.2788,112.3184a2.26,2.26,0,0,1-1.2832-1.2774,2.3413,2.3413,0,0,1-1.3374,1.4033l-.2578-.39a2.0288,2.0288,0,0,0,1.3433-1.877v-.6655h.4917v.6836a1.93,1.93,0,0,0,1.3012,1.7451Zm1.6733,1.727v.4019H41.3657v-1.6792h.4922v1.2773Zm-.624-3.1841H43.1528v-.4077h1.1753v-1.2593h.4981v4.0176h-.4981Z" transform="translate(-0.5 -0.5)" style="fill: #ef7c1c"/>
  </g>
  <g>
    <path d="M33.0186,135.8857H32.437v1.2115h-.522v-1.2115H30.0024v-.36l1.8287-2.8242h.6059v2.7465h.5816Zm-1.1036-.4375v-1.35c0-.2158.024-.5693.0362-.7973h-.024c-.1079.2158-.228.4316-.354.6474l-1.0014,1.5Z" transform="translate(-0.5 -0.5)" style="fill: #00a5de"/>
    <path d="M39.75,136.5093v.4018H34.8745v-.4018h2.189v-.7554c-.9478-.0542-1.5235-.42-1.5235-1.0195,0-.6475.6778-1.02,1.7691-1.02,1.0732,0,1.751.3721,1.751,1.02,0,.6-.57.9594-1.5049,1.0195v.7554Zm-.27-3.16H35.1143v-.4018h1.9492v-.7017h.4917v.7017H39.48Zm-2.1709,2.0269c.7734,0,1.2534-.24,1.2534-.6416,0-.3955-.48-.6358-1.2534-.6358-.7857,0-1.2715.24-1.2715.6358C36.0376,135.1362,36.5234,135.376,37.3091,135.376Z" transform="translate(-0.5 -0.5)" style="fill: #00a5de"/>
    <path d="M43.2788,135.292a2.26,2.26,0,0,1-1.2832-1.2774,2.3417,2.3417,0,0,1-1.3374,1.4034l-.2578-.39a2.0286,2.0286,0,0,0,1.3433-1.8769v-.6656h.4917v.6836a1.93,1.93,0,0,0,1.3012,1.7452Zm1.6733,1.727v.4019H41.3657v-1.6792h.4922v1.2773Zm-.624-3.184H43.1528v-.4078h1.1753V132.168h.4981v4.0175h-.4981Z" transform="translate(-0.5 -0.5)" style="fill: #00a5de"/>
  </g>
  <g>
    <path d="M30.05,159.5664l.27-.36a1.4448,1.4448,0,0,0,1.0791.4863.95.95,0,0,0,.9356-1.0371.89.89,0,0,0-.9117-1.002,1.1965,1.1965,0,0,0-.7314.2578l-.294-.18.1382-2.0566h2.1407v.4678H31.0156l-.1079,1.27a1.2672,1.2672,0,0,1,.6538-.1738,1.2544,1.2544,0,0,1,1.3252,1.3974,1.4279,1.4279,0,0,1-1.4394,1.5117A1.8665,1.8665,0,0,1,30.05,159.5664Z" transform="translate(-0.5 -0.5)" style="fill: #996cac"/>
    <path d="M39.75,159.4824v.4014H34.8745v-.4014h2.189v-.7558c-.9478-.0537-1.5235-.42-1.5235-1.02,0-.6474.6778-1.019,1.7691-1.019,1.0732,0,1.751.3716,1.751,1.019,0,.6-.57.96-1.5049,1.02v.7558Zm-.27-3.16H35.1143V155.92h1.9492v-.7016h.4917v.7016H39.48Zm-2.1709,2.0263c.7734,0,1.2534-.2392,1.2534-.6416,0-.3955-.48-.6357-1.2534-.6357-.7857,0-1.2715.24-1.2715.6357C36.0376,158.1094,36.5234,158.3486,37.3091,158.3486Z" transform="translate(-0.5 -0.5)" style="fill: #996cac"/>
    <path d="M43.2788,158.2646a2.2585,2.2585,0,0,1-1.2832-1.2768,2.34,2.34,0,0,1-1.3374,1.4028l-.2578-.39a2.0282,2.0282,0,0,0,1.3433-1.8765v-.6655h.4917v.6836a1.93,1.93,0,0,0,1.3012,1.7451Zm1.6733,1.7276v.4014H41.3657v-1.6788h.4922v1.2774Zm-.624-3.1841H43.1528V156.4h1.1753v-1.2593h.4981v4.0171h-.4981Z" transform="translate(-0.5 -0.5)" style="fill: #996cac"/>
  </g>
  <g>
    <path d="M32.5688,179.3555a.9293.9293,0,0,0-.7075-.336c-.6,0-1.1093.4619-1.1333,1.8291a1.3681,1.3681,0,0,1,1.0015-.5332c.7432,0,1.2173.4619,1.2173,1.3789a1.32,1.32,0,0,1-1.2593,1.4278c-.8457,0-1.4692-.7256-1.4692-2.1768,0-1.7217.7734-2.3808,1.625-2.3808a1.35,1.35,0,0,1,1.0254.4492Zm-.1376,2.3388c0-.5937-.2583-.9716-.792-.9716a1.1461,1.1461,0,0,0-.8995.5644c.066.9111.396,1.4092.9478,1.4092C32.1069,182.6963,32.4312,182.2939,32.4312,181.6943Z" transform="translate(-0.5 -0.5)" style="fill: #cd7c2f"/>
    <path d="M39.75,182.4561v.4013H34.8745v-.4013h2.189V181.7c-.9478-.0537-1.5235-.42-1.5235-1.0195,0-.6475.6778-1.02,1.7691-1.02,1.0732,0,1.751.3721,1.751,1.02,0,.6-.57.96-1.5049,1.0195v.7559Zm-.27-3.16H35.1143v-.4023h1.9492v-.7012h.4917v.7012H39.48Zm-2.1709,2.0264c.7734,0,1.2534-.2393,1.2534-.6416,0-.3955-.48-.6358-1.2534-.6358-.7857,0-1.2715.24-1.2715.6358C36.0376,181.083,36.5234,181.3223,37.3091,181.3223Z" transform="translate(-0.5 -0.5)" style="fill: #cd7c2f"/>
    <path d="M43.2788,181.2383a2.258,2.258,0,0,1-1.2832-1.2774,2.34,2.34,0,0,1-1.3374,1.4034l-.2578-.39a2.0287,2.0287,0,0,0,1.3433-1.8769v-.6651h.4917v.6836a1.93,1.93,0,0,0,1.3012,1.7451Zm1.6733,1.7275v.4014H41.3657v-1.6787h.4922v1.2773Zm-.624-3.1845H43.1528v-.4073h1.1753v-1.26h.4981v4.0175h-.4981Z" transform="translate(-0.5 -0.5)" style="fill: #cd7c2f"/>
  </g>
  <g>
    <path d="M32.3052,202.0889H30.1763v-.4678h2.7524v.33a6.0256,6.0256,0,0,0-1.29,4.0654H31.07A6.5058,6.5058,0,0,1,32.3052,202.0889Z" transform="translate(-0.5 -0.5)" style="fill: #747f00"/>
    <path d="M39.75,205.4287v.4024H34.8745v-.4024h2.189v-.7549c-.9478-.0547-1.5235-.42-1.5235-1.0195,0-.6475.6778-1.0195,1.7691-1.0195,1.0732,0,1.751.372,1.751,1.0195,0,.6-.57.959-1.5049,1.0195v.7549Zm-.27-3.16H35.1143v-.4014h1.9492v-.7022h.4917v.7022H39.48Zm-2.1709,2.0273c.7734,0,1.2534-.24,1.2534-.6416,0-.3955-.48-.6357-1.2534-.6357-.7857,0-1.2715.24-1.2715.6357C36.0376,204.0557,36.5234,204.2959,37.3091,204.2959Z" transform="translate(-0.5 -0.5)" style="fill: #747f00"/>
    <path d="M43.2788,204.2119a2.2611,2.2611,0,0,1-1.2832-1.2773,2.3429,2.3429,0,0,1-1.3374,1.4033l-.2578-.39a2.0286,2.0286,0,0,0,1.3433-1.8769v-.666h.4917v.6836a1.9292,1.9292,0,0,0,1.3012,1.7451Zm1.6733,1.7266v.4023H41.3657v-1.68h.4922v1.2774Zm-.624-3.1836H43.1528v-.4082h1.1753v-1.2588h.4981v4.0176h-.4981Z" transform="translate(-0.5 -0.5)" style="fill: #747f00"/>
  </g>
  <g>
    <path d="M30.1523,227.8994a1.4085,1.4085,0,0,1,.81-1.2119v-.0293a1.2226,1.2226,0,0,1-.5937-1.0137,1.2076,1.2076,0,0,1,2.4106.042,1.4408,1.4408,0,0,1-.5879,1.0615v.0293a1.2839,1.2839,0,0,1,.7437,1.1514,1.2294,1.2294,0,0,1-1.3794,1.14A1.2606,1.2606,0,0,1,30.1523,227.8994Zm2.2608.0176c0-.5879-.54-.81-1.1636-1.0615a1.1971,1.1971,0,0,0-.6.9961.8429.8429,0,0,0,.9175.81A.762.762,0,0,0,32.4131,227.917Zm-.1021-2.2012a.7331.7331,0,0,0-.75-.7851.6758.6758,0,0,0-.6958.7138c0,.5274.4737.7559.99.959A1.1785,1.1785,0,0,0,32.311,225.7158Z" transform="translate(-0.5 -0.5)" style="fill: #ea545d"/>
    <path d="M39.75,228.4023v.4024H34.8745v-.4024h2.189v-.7548c-.9478-.0547-1.5235-.42-1.5235-1.02,0-.6474.6778-1.02,1.7691-1.02,1.0732,0,1.751.3721,1.751,1.02,0,.6-.57.959-1.5049,1.02v.7548Zm-.27-3.16H35.1143v-.4014h1.9492v-.7021h.4917v.7021H39.48ZM37.3091,227.27c.7734,0,1.2534-.24,1.2534-.6416,0-.3955-.48-.6357-1.2534-.6357-.7857,0-1.2715.24-1.2715.6357C36.0376,227.0293,36.5234,227.27,37.3091,227.27Z" transform="translate(-0.5 -0.5)" style="fill: #ea545d"/>
    <path d="M43.2788,227.1855a2.2608,2.2608,0,0,1-1.2832-1.2773,2.3426,2.3426,0,0,1-1.3374,1.4033l-.2578-.39a2.0288,2.0288,0,0,0,1.3433-1.877v-.666h.4917v.6836a1.9292,1.9292,0,0,0,1.3012,1.7451Zm1.6733,1.7266v.4024H41.3657v-1.68h.4922v1.2773Zm-.624-3.1836H43.1528V225.32h1.1753v-1.2588h.4981v4.0176h-.4981Z" transform="translate(-0.5 -0.5)" style="fill: #ea545d"/>
  </g>
</svg>
